# xmcd
#
# Track frame offsets: 
#        150
#        11365
#        25380
#        37370
#        50730
#        65392
#        77940
#        91887
#        107952
#        119640
#        130950
#        143360
#
# Disc length: 2054 seconds
#
# Revision: 0
# Processed by: cddbd v1.4PL0 Copyright (c) Steve Scherf et al.
# Submitted via: ExactAudioCopy v0.90b4
#
DISCID=a908040c
DTITLE=Various Artist - Nashville Star - The Finalists
DYEAR=2003
DGENRE=Country
TTITLE0=Miranda Lambert - Honky Tonk Blues
TTITLE1=Jamey Garner - Two More Bottles Of Wine
TTITLE2=Amy Chappell - Son Of A Preacher Man
TTITLE3=Buddy Jewell - Then You Can Tell Me Goodbye
TTITLE4=Natasha Valentine - Your Cheatin' Heart
TTITLE5=Travis Howard - Blue Eyes Cryin' In The Rain
TTITLE6=Anne Louise Blythe - Poor, Poor Pitiful Me
TTITLE7=John Arthur Martinez - When You Say Nothing At All
TTITLE8=Kristen Kissling - Heartbreak Hotel
TTITLE9=Prentiss Varnon - Hey Good Lookin'
TTITLE10=Brandi Gibson - Walking After Midnight
TTITLE11=Brandon Silveira - Act Naturally
EXTD=
EXTT0=
EXTT1=
EXTT2=
EXTT3=
EXTT4=
EXTT5=
EXTT6=
EXTT7=
EXTT8=
EXTT9=
EXTT10=
EXTT11=
PLAYORDER=
